<svg id="Layer_1" data-name="Layer 1" xmlns="http://www.w3.org/2000/svg" viewBox="0 0 140 100"><defs><style>.cls-1,.cls-2{fill:#430099;}.cls-2{fill-rule:evenodd;}</style></defs><rect class="cls-1" x="20.11" y="34.62" width="6.9" height="12.76"/><rect class="cls-1" x="30.51" y="25" width="6.9" height="22.37"/><rect class="cls-1" x="40.92" y="28.52" width="6.9" height="18.86"/><rect class="cls-1" x="51.32" y="18.91" width="6.9" height="28.47"/><path class="cls-2" d="M13.28-.08H65.05a6.09,6.09,0,0,1,4.46,1.85A6,6,0,0,1,71.33,6.2V47.37h-7V6.9H14V79.75H64.37V67.21h7V93.63a6.25,6.25,0,0,1-6.28,6.29H13.28a6.12,6.12,0,0,1-4.47-1.84A6,6,0,0,1,7,93.63V6.2A6,6,0,0,1,8.81,1.77,6.12,6.12,0,0,1,13.28-.08ZM45.59,88.29H32.74v3.23H45.59Z"/><polygon class="cls-1" points="125.31 13.44 125.18 40.63 132.96 32.86 133 0 100.14 0.04 92.36 7.82 119.51 7.66 73.76 53.41 41.17 53.41 41.17 61.6 77.15 61.6 125.31 13.44"/></svg>