<svg id="Layer_1" data-name="Layer 1" xmlns="http://www.w3.org/2000/svg" viewBox="0 0 140 100"><defs><style>.cls-1{fill:#430099;}</style></defs><path class="cls-1" d="M42.45,80H117.3l.07-8.75h0L91.51,63.48,77.86,69.89l-9.61-3.33-9.11,7.31L42.45,66.56Zm32.3-47.83L49.53,23.88l-7.08,4.74v8.72H117.3l.07-8.75h0l-10.25-5.8ZM42.45,53v5.73H117.3l.07-8.75h0L91.51,42.14,77.86,48.55l-9.61-3.33ZM89.5,94.78l5.84,24.85H44.66L50.5,94.78m89.5,5.43H0V2.05H140ZM14,86.27h112.1V16H14ZM34.68,37.34h-13v-13h13Zm0,21.34h-13v-13h13Zm0,21.34h-13V67h13Z"/></svg>