<svg id="Layer_1" data-name="Layer 1" xmlns="http://www.w3.org/2000/svg" viewBox="0 0 140 100"><defs><style>.cls-1{fill:#430099;}</style></defs><circle class="cls-1" cx="97.71" cy="82.01" r="12.99" transform="translate(-22.38 125.03) rotate(-59.72)"/><circle class="cls-1" cx="97.71" cy="17.99" r="12.99" transform="translate(61.15 110.37) rotate(-78.84)"/><circle class="cls-1" cx="127.01" cy="50" r="12.99" transform="translate(19.78 134.46) rotate(-59.72)"/><path class="cls-1" d="M97.71,42.41A7.59,7.59,0,1,1,90.12,50a7.59,7.59,0,0,1,7.59-7.59m0-5.4a13,13,0,1,0,13,13,13,13,0,0,0-13-13Z"/><path class="cls-1" d="M127,74.42A7.59,7.59,0,1,1,119.42,82,7.6,7.6,0,0,1,127,74.42m0-5.4a13,13,0,1,0,13,13,13,13,0,0,0-13-13Z"/><path class="cls-1" d="M127,10.4A7.59,7.59,0,1,1,119.42,18,7.61,7.61,0,0,1,127,10.4M127,5a13,13,0,1,0,13,13A13,13,0,0,0,127,5Z"/><path class="cls-1" d="M42.29,74.42A7.59,7.59,0,1,1,34.7,82a7.6,7.6,0,0,1,7.59-7.59m0-5.4a13,13,0,1,0,13,13,13,13,0,0,0-13-13Z"/><path class="cls-1" d="M42.29,42.41A7.59,7.59,0,1,1,34.7,50a7.6,7.6,0,0,1,7.59-7.59m0-5.4a13,13,0,1,0,13,13,13,13,0,0,0-13-13Z"/><path class="cls-1" d="M42.29,10.4A7.59,7.59,0,1,1,34.7,18a7.61,7.61,0,0,1,7.59-7.59m0-5.4a13,13,0,1,0,13,13,13,13,0,0,0-13-13Z"/><circle class="cls-1" cx="12.99" cy="82.01" r="12.99" transform="translate(-39.58 17.74) rotate(-30.28)"/><circle class="cls-1" cx="12.99" cy="50" r="12.99" transform="translate(-23.44 13.37) rotate(-30.28)"/><circle class="cls-1" cx="12.99" cy="17.99" r="12.99" transform="translate(-3.24 2.85) rotate(-11.16)"/></svg>