<svg id="Layer_1" data-name="Layer 1" xmlns="http://www.w3.org/2000/svg" viewBox="0 0 140 100"><defs><style>.cls-1,.cls-2{fill:#430099;}.cls-2{fill-rule:evenodd;}</style></defs><path class="cls-1" d="M123.08,39.42a8.6,8.6,0,0,1,.89,1c.21-.05.42-.07.62-.1V16.74H85.94V43.52h12.8v-7H92.94V23.74h24.65V36.52"/><path class="cls-1" d="M137,3A9.54,9.54,0,0,0,130.28.09L9.68,0A9.52,9.52,0,0,0,2.94,2.92,9.56,9.56,0,0,0,0,9.68v2.25c0,22.6,0,42.79,0,65.39h0v1.86a9.58,9.58,0,0,0,2.91,6.76,9.51,9.51,0,0,0,6.73,2.91l95.8,0q-4.87-2.26-7.21-10.95c0-.2-.11-.38-.17-.58l-86.55,0,.08-65.84,116.89.08,0,28.66a8.73,8.73,0,0,1,2.28,1.64A8.85,8.85,0,0,1,132,43.64a8.67,8.67,0,0,1,2.76-.44,8.31,8.31,0,0,1,5.07,1.69c0-17.84.06-23.32.09-35.1A9.61,9.61,0,0,0,137,3Z"/><rect class="cls-1" x="21.71" y="52.83" width="61.86" height="6.31"/><path class="cls-1" d="M43.27,17.64V20H20.88V34.25h2.37v9.5h9.49V41.37H49.39v2.38h9.49v-9.5h2.38V20H45.65V17.64ZM30.37,31.88H25.62V29.51h4.75Zm0-4.75H25.62V24.76h4.75ZM48,24.76v7.12H35.12V24.76h8.15v4.75h2.38V24.76Z"/><rect class="cls-1" x="21.71" y="63.55" width="49.79" height="6.31"/><path class="cls-2" d="M138.89,72.46l0-20.95a4.36,4.36,0,0,0-8.68-.62h0V48.24a4.2,4.2,0,0,0-1.29-3.09,4.14,4.14,0,0,0-3.06-1.27h0a4.2,4.2,0,0,0-3.08,1.27,4.26,4.26,0,0,0-1.26,2.5h0V45a4.15,4.15,0,0,0-1.26-3.07,4.38,4.38,0,0,0-7.43,2.51l0-13.57a4.93,4.93,0,0,0-1.5-3.58,5,5,0,0,0-7.13,0,4.9,4.9,0,0,0-1.47,3.58l0,28-4.18-3.85a5.39,5.39,0,0,0-3.71-1.49,4.54,4.54,0,0,0-4.6,5A5.41,5.41,0,0,0,92,62.05l1.4,1.3q4.83,4.35,7.11,12.88t7.27,10.25l0,13.49,25.76,0V86.41Q139.13,83.2,138.89,72.46Z"/></svg>