<?xml version="1.0" encoding="utf-8"?>
<svg width="40px" height="40px" viewBox="0 0 40 40" version="1.1" xmlns:xlink="http://www.w3.org/1999/xlink" xmlns="http://www.w3.org/2000/svg">
  <desc>Created with Lunacy</desc>
  <g id="np_data_2921750_16A500">
    <path d="M10.2711 29.2412C7.2303 30.0382 5.45326 33.0623 6.28375 35.9583C7.11259 38.8544 10.2421 40.6041 13.2846 39.8073C16.3254 39.0103 18.1024 35.9862 17.2719 33.0901C16.9223 31.8585 16.1651 30.8516 15.1759 30.1366L20.8517 19.4312C21.6089 19.6263 22.4241 19.6411 23.224 19.4164C23.9369 19.2344 24.5781 18.8851 25.0863 18.4374L31.272 22.6784C30.9957 23.3508 30.9514 24.1199 31.1561 24.8612C31.695 26.7504 33.7313 27.8704 35.6958 27.3522C37.6603 26.834 38.8253 24.8759 38.2864 22.9869C37.7474 21.0979 35.7112 19.9776 33.7467 20.4959C33.2367 20.6353 32.7575 20.8731 32.3789 21.1961L26.2085 16.9421C26.6161 16.0598 26.7184 15.0381 26.4268 14.0312C26.3398 13.7229 26.2085 13.4294 26.0635 13.1489L31.4921 8.81134C32.686 9.73461 34.2857 10.1135 35.8734 9.70673C38.4776 9.02125 40.0364 6.4187 39.3082 3.91279C38.6055 1.40696 35.899 -0.090284 33.2792 0.595241C30.6595 1.28077 29.1162 3.88328 29.8444 6.38918C29.9468 6.75325 30.0917 7.08945 30.2657 7.39608L24.8388 11.7631C23.7319 10.9513 22.2635 10.602 20.8224 10.9792C19.9782 11.2038 19.25 11.6368 18.6974 12.2108L12.3803 8.55865C12.9192 7.32706 13.0352 5.94132 12.6429 4.55558C11.7118 1.26754 8.16084 -0.677487 4.72613 0.21799C1.29133 1.11338 -0.702517 4.54256 0.228744 7.8306C1.15992 11.1186 4.71085 13.0637 8.14556 12.1682C9.48434 11.8189 10.5912 11.0908 11.4047 10.1248L17.7353 13.7769C17.4437 14.5887 17.401 15.4841 17.6483 16.3516C17.911 17.2618 18.4636 18.0457 19.1611 18.5901L13.4853 29.2955C12.4535 29.0036 11.3467 28.961 10.2705 29.2414L10.2711 29.2412Z" id="Path" fill="#430099" stroke="none" />
  </g>
</svg>