<?xml version="1.0" encoding="utf-8"?>
<svg width="44px" height="42px" viewBox="0 0 44 42" version="1.1" xmlns:xlink="http://www.w3.org/1999/xlink" xmlns="http://www.w3.org/2000/svg">
  <desc>Created with Lunacy</desc>
  <g id="np_value_2334506_16A500">
    <path d="M39.061 3.81763C37.836 4.24672 35.8842 4.71941 33.7053 5.19037C32.9341 6.39217 31.5265 7.37941 29.3035 7.76491C28.8035 7.85039 28.215 7.89397 27.5785 7.93587C26.0362 7.97945 24.2209 7.80681 22.2228 7.67775C22.0863 7.67775 21.9498 7.67775 21.8151 7.63417C21.3151 7.59059 20.9074 7.24866 20.8613 6.776C20.8152 6.17596 21.3151 5.70327 21.9055 5.78875C22.042 5.78875 22.2228 5.83233 22.3593 5.83233C24.9458 6.04687 27.3978 6.26142 28.9399 5.96139C31.7994 5.44682 32.6167 3.81594 32.4341 2.4432C32.2976 1.32689 31.3899 0.254163 29.9841 0.341354C27.9879 0.470415 25.6265 0.341354 23.3132 0.170388C20.6806 -0.000578217 18.0037 -0.0877347 16.0518 0.12681C13.9191 0.341354 9.60778 1.84316 5.79419 4.28863C3.93274 5.49042 1.84619 6.90676 0.575082 7.80681C-0.0595617 8.2359 -0.196075 9.09408 0.302073 9.69412L5.83842 16.4741C6.29225 17.0742 7.19992 17.1614 7.83457 16.7323L9.87683 15.2305C10.3768 14.8869 11.0114 14.7578 11.5557 14.9304C15.2767 16.0468 19.2709 16.7759 21.8573 16.9049C27.5302 17.1631 38.4686 10.8123 41.5991 8.75224C44.7795 6.73587 42.5103 2.61756 39.0605 3.81772L39.061 3.81763Z" transform="translate(0 25)" id="Path" fill="#430099" stroke="none" />
    <path d="M1.46401 5.9599L3.04867 5.9599L3.04867 7.5401C3.04867 8.3508 3.6997 9 4.51268 9C5.32566 9 5.9767 8.3508 5.9767 7.5401L5.9767 5.9599L7.56136 5.9599C8.37433 5.9599 9.02537 5.31069 9.02537 4.5C9.02537 3.68931 8.37433 3.0401 7.56136 3.0401L5.9767 3.0401L5.9767 1.4599C5.9767 0.649204 5.32566 0 4.51268 0C3.6997 0 3.04867 0.649204 3.04867 1.4599L3.04867 3.00054L1.46401 3.00054C0.651034 3.00054 0 3.64974 0 4.46044C0 5.31073 0.651034 5.9599 1.46401 5.9599Z" transform="translate(19.05354 12)" id="Path" fill="#430099" stroke="none" />
    <path d="M0 5.02188C0 5.91871 0.720202 6.63689 1.61955 6.63689L3.37257 6.63689L3.37257 8.38499C3.37257 9.28182 4.09277 10 4.99213 10C5.89148 10 6.61168 9.28182 6.61168 8.38499L6.61168 6.63689L8.40863 6.63689C9.30799 6.63689 10.0282 5.91871 10.0282 5.02188C10.0282 4.12505 9.30799 3.36311 8.40863 3.36311L6.65561 3.36311L6.65561 1.61501C6.65561 0.718181 5.93541 0 5.03606 0C4.13671 0 3.41651 0.718181 3.41651 1.61501L3.41651 3.36311L1.66349 3.36311C0.718448 3.36311 4.49676e-05 4.08129 4.49676e-05 5.02188L0 5.02188Z" transform="translate(32.09019 12)" id="Path" fill="#430099" stroke="none" />
    <path d="M1.46401 6.63691L3.04867 6.63691L3.04867 8.385C3.04867 9.28182 3.6997 10 4.51268 10C5.32566 10 5.9767 9.28182 5.9767 8.385L5.9767 6.63691L7.56136 6.63691C8.37433 6.63691 9.02537 5.91873 9.02537 5.0219C9.02537 4.12508 8.37433 3.4069 7.56136 3.4069L5.9767 3.4069L5.9767 1.615C5.9767 0.718177 5.32566 0 4.51268 0C3.6997 0 3.04867 0.718177 3.04867 1.615L3.04867 3.36309L1.46401 3.36309C0.651034 3.36309 0 4.08127 0 4.9781C0.00158775 5.92048 0.651034 6.63686 1.46401 6.63686L1.46401 6.63691Z" transform="translate(25.07047 0)" id="Path" fill="#430099" stroke="none" />
  </g>
</svg>