<svg id="Layer_1" data-name="Layer 1" xmlns="http://www.w3.org/2000/svg" viewBox="0 0 180 180"><defs><style>.cls-1{fill:#430099;fill-rule:evenodd;}</style></defs><path class="cls-1" d="M32.74,75.73a6.11,6.11,0,0,0,0,8.68,6.24,6.24,0,0,0,8.73,0,6.08,6.08,0,0,0,0-8.68,6.22,6.22,0,0,0-8.73,0Zm-4.21-8c.3-.21.61-.41.92-.59L73.36,38.23c0-.27,0-.54,0-.82A13.47,13.47,0,0,1,86.91,23.83h23.72V30.6H123.9l4.39-7.66a8.13,8.13,0,0,1,3.09-3,8.33,8.33,0,0,1,4.21-1.15h11.82a8.3,8.3,0,0,1,4.19,1.12,8.5,8.5,0,0,1,3.09,3.07l3,5.1-7.28,4.21-3-5.1H135.59l-5.92,10.24,0,0,5.9,10.21h11.82l3-5.13,7.28,4.21-3,5.13a8.5,8.5,0,0,1-3.09,3.07A8.3,8.3,0,0,1,147.41,56H135.59a8.33,8.33,0,0,1-4.21-1.15,8.2,8.2,0,0,1-3.09-3l-4.39-7.66H110.63V51H91.17L58.55,80.68l37.78,24.91c.69-.18,1.39-.33,2.09-.46a29,29,0,0,1,4.91-.41,28.66,28.66,0,0,1,4.87.41,27.23,27.23,0,0,1,22.13,26.63A26.42,26.42,0,0,1,128,142.94H142.3l15.63,21.77v9H48.7v-9l15.62-21.77H78.64a26.42,26.42,0,0,1-2.35-11.18c0-.28,0-.55,0-.82L36.9,95.05a14.43,14.43,0,0,1-10.41-4.42,17.5,17.5,0,0,1-1.38-1.5,15,15,0,0,1,.1-18.23,17,17,0,0,1,1.28-1.43A16.69,16.69,0,0,1,28.53,67.71Zm88.43,64a13.61,13.61,0,1,0-4,9.65A13.14,13.14,0,0,0,117,131.73Z"/><path class="cls-1" d="M111.85,131.73a8.54,8.54,0,1,1-2.5-6A8.22,8.22,0,0,1,111.85,131.73Z"/></svg>