<svg id="Layer_1" data-name="Layer 1" xmlns="http://www.w3.org/2000/svg" viewBox="0 0 180 180"><defs><style>.cls-1{fill:#430099;}</style></defs><path class="cls-1" d="M23.75,96.4a3,3,0,0,0,3.81,1.95l5.27-1.7v35.91h4.58V95.18L125.57,66.8,149.3,90.93a4.65,4.65,0,0,0,.66.53v59.59h4.58V91.37a4,4,0,0,0,1.6-2.46A76.16,76.16,0,0,0,133,17.35a4,4,0,0,0-6.73,2.37l-5.17,33.72L23.24,85a3,3,0,0,0-2,3.82Z"/><path class="cls-1" d="M84,88.05h9.81a1.84,1.84,0,0,0,1.84-1.83v-8.1L82.2,82.46v3.76A1.84,1.84,0,0,0,84,88.05Z"/><path class="cls-1" d="M177.78,166.78a3.06,3.06,0,0,0-3.06-3.06H161l2.54-7.05a3.05,3.05,0,0,0-2.87-4.09H143.8a3.05,3.05,0,0,0-2.87,4.09l2.54,7.05H115.64l-10.21-71.3a3.05,3.05,0,0,0-3-2.62H75.33l-.26,0-.32.07-.23.06-.31.12-.22.11-.28.19a1.18,1.18,0,0,0-.18.13,2.89,2.89,0,0,0-.35.35l-.06,0h0a3.08,3.08,0,0,0-.32.48c0,.07-.06.13-.09.19a2,2,0,0,0-.13.34,2.5,2.5,0,0,0-.07.26c0,.08,0,.15-.05.23l-10.21,71.3H48V137.45a3.06,3.06,0,0,0-3.06-3H25.29a3.06,3.06,0,0,0-3.06,3v26.27H5.28a3.06,3.06,0,0,0-3.06,3.06h0v7H177.78v-7ZM74.55,121h21L72.43,135.76Zm3.19-22.29,19.71,16.17h-22Zm28.17,40.21h-27L103.64,123Zm-35.06,7.89,30.39,17H68.42ZM80.2,145h26.59l2.3,16.12Zm21.65-34.44L84,95.91H99.76Z"/></svg>