<svg id="Layer_1" data-name="Layer 1" xmlns="http://www.w3.org/2000/svg" viewBox="0 0 140 100"><defs><style>.cls-1,.cls-2{fill:#430099;}.cls-2{fill-rule:evenodd;}</style></defs><rect class="cls-1" x="85.9" y="45.65" width="5.43" height="3.73"/><rect class="cls-1" x="48.22" y="45.65" width="5.43" height="3.73"/><rect class="cls-1" x="67.91" y="25.96" width="3.74" height="5.43"/><rect class="cls-1" x="81.3" y="58.2" width="3.6" height="5.28" transform="translate(-18.68 76.61) rotate(-45.01)"/><rect class="cls-1" x="54.66" y="31.55" width="3.6" height="5.28" transform="translate(-7.64 49.95) rotate(-45.01)"/><rect class="cls-1" x="80.46" y="32.39" width="5.28" height="3.6" transform="translate(0.15 68.75) rotate(-44.98)"/><path class="cls-2" d="M82.34,47.52a12.56,12.56,0,0,0-25.12,0,12.66,12.66,0,0,0,7.13,11.37v9.19H75.21V58.89a12.49,12.49,0,0,0,7.13-11.37Z"/><rect class="cls-1" x="53.82" y="59.04" width="5.28" height="3.6" transform="translate(-26.48 57.72) rotate(-44.99)"/><path class="cls-1" d="M84.94,7.58V0H77.36V7.58H-.44v62.1H7.14V100H39.46V92.42H100.1V100h32.32V69.68H140V7.58ZM29.88,62.1H14.72V49H29.88Zm0-20.7H14.72V28.28H29.88Zm39.9,37.93a31,31,0,1,1,31-31A31,31,0,0,1,69.78,79.33Z"/></svg>