<svg id="Layer_1" data-name="Layer 1" xmlns="http://www.w3.org/2000/svg" viewBox="0 0 140 100"><defs><style>.cls-1{fill:#430099;}</style></defs><rect class="cls-1" x="29.87" y="27.49" width="6.17" height="8.67"/><rect class="cls-1" x="115.85" y="58.47" width="6.17" height="14.11"/><rect class="cls-1" x="41.76" y="29.87" width="6.17" height="6.29"/><rect class="cls-1" x="103.96" y="66.28" width="6.17" height="6.29"/><rect class="cls-1" x="17.98" y="16.58" width="6.17" height="19.58"/><rect class="cls-1" x="53.64" y="31.32" width="6.17" height="4.83"/><rect class="cls-1" x="53.57" y="67.74" width="6.16" height="4.83"/><rect class="cls-1" x="41.71" y="60.72" width="6.16" height="11.85"/><rect class="cls-1" x="17.97" y="55.78" width="6.16" height="16.79"/><rect class="cls-1" x="29.84" y="63.91" width="6.16" height="8.67"/><rect class="cls-1" x="92.07" y="31.2" width="6.17" height="4.96"/><rect class="cls-1" x="80.19" y="22.15" width="6.17" height="14.01"/><rect class="cls-1" x="103.96" y="27.08" width="6.17" height="9.07"/><path class="cls-1" d="M140-.48H0v89H50.74L46.51,100h47L89.26,88.49H140ZM65.52,76.57H12.18v-29H65.52Zm.09-36.42H12.18v-29H65.61Zm62.21,36.42H74.39v-29h53.43Zm0-36.42H74.39v-29h53.43Z"/><rect class="cls-1" x="92.07" y="62.05" width="6.17" height="10.52"/><rect class="cls-1" x="80.19" y="54.85" width="6.17" height="17.72"/><rect class="cls-1" x="115.85" y="33.18" width="6.17" height="2.98"/></svg>