<svg id="Layer_1" data-name="Layer 1" xmlns="http://www.w3.org/2000/svg" viewBox="0 0 140 100"><defs><style>.cls-1{fill:#430099;}</style></defs><polygon class="cls-1" points="119.61 61.62 85.05 54.38 66.81 60.34 53.96 57.24 41.8 64.04 19.5 57.24 19.5 69.75 119.52 69.75 119.61 61.62"/><polygon class="cls-1" points="119.61 21.97 105.91 16.58 62.66 25.31 28.96 17.59 19.5 21.99 19.5 30.1 119.52 30.1 119.61 21.97"/><polygon class="cls-1" points="119.61 41.8 85.05 34.56 66.81 40.51 53.96 37.42 19.5 44.6 19.5 49.92 119.52 49.92 119.61 41.8"/><path class="cls-1" d="M140-.48H0v89H50.74L46.51,100h47L89.26,88.49H140ZM127.07,76.57H12.93V11.44H127.07Z"/></svg>