<svg id="Layer_1" data-name="Layer 1" xmlns="http://www.w3.org/2000/svg" viewBox="0 0 140 100"><defs><style>.cls-1,.cls-2{fill:#430099;}.cls-1{fill-rule:evenodd;}.cls-3{fill:#fff;}</style></defs><path class="cls-1" d="M98.48,81.43H48.55l-.24.55a37.46,37.46,0,0,1-1.76,3.4,36.44,36.44,0,0,1-4.86,6.53v2.3a5.55,5.55,0,0,0,1.67,4.09,5.62,5.62,0,0,0,4.11,1.7H99.11a5.61,5.61,0,0,0,4.1-1.7,5.55,5.55,0,0,0,1.67-4.09V43.9h-6.4ZM80.3,92.11h-14V89.65h14Z"/><path class="cls-1" d="M103.21,1.7A5.61,5.61,0,0,0,99.11,0H47.47a5.62,5.62,0,0,0-4.11,1.7,5.52,5.52,0,0,0-1.67,4.07V57L44,53.74l.15-.18a20,20,0,0,1,4-4.26V6.42H98.48V21.66h6.4V5.77A5.52,5.52,0,0,0,103.21,1.7Z"/><path class="cls-2" d="M54.28,50.58q-3.47-1.17-7.75,4.75l-.18.24L40.47,64c-.09.1-.17.2-.26.29a6.38,6.38,0,0,1-.73.8,3.1,3.1,0,0,1-2.73.88h-.11A2.19,2.19,0,0,1,35.07,64v-.22c0-.13,0-.27-.05-.41,0-.34-.06-.72-.07-1.14v-8A9.3,9.3,0,0,1,38.15,47l.33-.32.34-.27V31.65l-1.44.86Q35,33.92,32.67,35.25l-1.43.81Q20.35,42.23,19,50.86l0,.28L16.19,71.56q-.81,5.7-4.7,8.41L0,87.58,8.59,95q10.5,9.18,22.81,1.4L33,95.38a34.34,34.34,0,0,0,12.59-14.6l11-25.18Q57.82,51.76,54.28,50.58Z"/><path class="cls-3" d="M37-1l-.44.22a1.06,1.06,0,0,0-.42.39,1.14,1.14,0,0,0-.27.51,1.22,1.22,0,0,0,0,.6A1.09,1.09,0,0,0,36,1.3l.24.31A1.45,1.45,0,0,0,36.9,2l.4.06a1.42,1.42,0,0,0,.75-.21l.44-.22a1,1,0,0,0,.42-.39,1,1,0,0,0,.27-.51,1.18,1.18,0,0,0,0-.59A1.12,1.12,0,0,0,39-.43L38.8-.74a1.54,1.54,0,0,0-.67-.38l-.39,0A1.44,1.44,0,0,0,37-1Z"/><polygon class="cls-2" points="97.98 36.23 109.52 36.23 132.31 13.44 132.18 30.64 139.96 22.86 140 0 117.14 0.04 109.36 7.82 126.51 7.66 106.13 28.04 98.05 28.04 97.98 36.23"/><path class="cls-2" d="M94.43,32.07,83.86,50.38H62.71L52.14,32.07,62.71,13.76H83.86Z"/><polygon class="cls-3" points="71.29 41.78 62.22 32.72 65.53 29.37 70.89 34.73 80.64 22.36 84.35 25.26 71.29 41.78"/></svg>