<svg id="Layer_1" data-name="Layer 1" xmlns="http://www.w3.org/2000/svg" viewBox="0 0 140 100"><defs><style>.cls-1{fill:#430099;}</style></defs><path class="cls-1" d="M35.1,51.65v2.82H46.38V51.65H68.94v2.82H80.21V43.19H83V26.27H63.3V23.46H60.48v2.81H32.29V43.19H35.1ZM49.2,31.91H60.48v5.64H63.3V31.91h2.82v8.46H49.2Zm-11.28,0h5.64v2.82H37.92Zm0,5.64h5.64v2.82H37.92Z"/><rect class="cls-1" x="95.76" y="24.87" width="13.05" height="7.37"/><rect class="cls-1" x="86.32" y="38.69" width="22.49" height="15.83"/><rect class="cls-1" x="74.08" y="65.48" width="34.27" height="7.28"/><rect class="cls-1" x="33.61" y="65.48" width="36.07" height="7.28"/><path class="cls-1" d="M82.39,87.4a4,4,0,0,1-2.48,3.46H60.09a4,4,0,0,1-2.48-3.46H2.52v2.73c0,6.37,6.22,7.37,6.22,7.37H131.05s6.43-1,6.43-7.37V87.4Z"/><path class="cls-1" d="M131.24,100,8.34,100A9.87,9.87,0,0,1,0,90.13V84.9H60.13v2.5a1.26,1.26,0,0,0,.6,1H79.27a1.25,1.25,0,0,0,.6-1V84.9H140v5.23c0,6.73-5.6,9.38-8.56,9.84Zm-.42-5A4.88,4.88,0,0,0,135,90.13V89.9H84.36a6.9,6.9,0,0,1-3.5,3.27l-.45.19H59.59l-.45-.19a6.9,6.9,0,0,1-3.5-3.27H5v.23A4.79,4.79,0,0,0,9,95"/><path class="cls-1" d="M117.2,14.47V77.38h9V12.47a9.88,9.88,0,0,0-2.72-6.8l-7,6.89a3,3,0,0,1,.7,1.91Z"/><path class="cls-1" d="M128.69,79.88h-14V14.47a.55.55,0,0,0-.13-.33l-1.44-1.75L123.5,2.08,125.28,4a12.32,12.32,0,0,1,3.41,8.51Zm-9-5h3.94V12.47a7.24,7.24,0,0,0-.59-2.88l-3.52,3.5a5.33,5.33,0,0,1,.18,1.38Z"/><path class="cls-1" d="M116.14,2.51H23.77a10,10,0,0,0-10,10v64.9h9V14.47a3.08,3.08,0,0,1,3.08-3.06h88.35a3.08,3.08,0,0,1,3.08,3.06v62.9h9V12.47A10,10,0,0,0,116.14,2.51ZM70,5.87A1.09,1.09,0,1,1,68.86,7,1.09,1.09,0,0,1,70,5.87Z"/><path class="cls-1" d="M128.69,79.87h-14V14.47a.57.57,0,0,0-.56-.56H25.78a.57.57,0,0,0-.56.56v65.4h-14V12.47A12.52,12.52,0,0,1,23.77,0h92.37a12.52,12.52,0,0,1,12.55,12.46Zm-9-5h3.94V12.47A7.51,7.51,0,0,0,116.14,5H73a3.56,3.56,0,0,1,0,3.91h41.14a5.59,5.59,0,0,1,5.6,5.56Zm-103.47,0h3.94V14.47a5.58,5.58,0,0,1,5.6-5.56H66.92a3.56,3.56,0,0,1,0-3.91H23.77a7.51,7.51,0,0,0-7.52,7.46ZM70,8.37a1.41,1.41,0,0,0,0-2.82A1.43,1.43,0,0,0,68.53,7,1.42,1.42,0,0,0,70,8.37m0-2.5"/><path class="cls-1" d="M22.71,14.47a3,3,0,0,1,.7-1.91L16.46,5.67a9.88,9.88,0,0,0-2.72,6.8V77.38h9V14.47Z"/><path class="cls-1" d="M25.23,79.88h-14V12.47A12.32,12.32,0,0,1,14.63,4l1.78-1.88L26.79,12.39l-1.43,1.75a.55.55,0,0,0-.13.33Zm-9-5h3.94V14.47a5.33,5.33,0,0,1,.18-1.38l-3.52-3.5a7.24,7.24,0,0,0-.59,2.88Z"/></svg>