<svg id="Layer_1" data-name="Layer 1" xmlns="http://www.w3.org/2000/svg" viewBox="0 0 140 100"><defs><style>.cls-1{fill:#430099;}</style></defs><path class="cls-1" d="M71.16,49c-2.45-1-2.86-1.55-2.86-2.35,0-1,.77-1.54,2.07-1.54a5.68,5.68,0,0,1,3,.82l.8.46,1.24-3.28-.57-.34a7.62,7.62,0,0,0-2.86-1l-.26,0V39.05H68.47v2.88l-.22.06a5.07,5.07,0,0,0-3.86,4.93c0,3,2.5,4.44,5,5.4s2.56,1.79,2.56,2.49c0,1.12-1,1.85-2.42,1.85a6.38,6.38,0,0,1-3.45-1l-.85-.56L64,58.4l.49.35A8.24,8.24,0,0,0,68,60l.26,0v2.77h3.29v-3l.21-.07a5.34,5.34,0,0,0,4.06-5.17c0-3.34-2.5-4.79-4.68-5.67Z"/><path class="cls-1" d="M45.29,80.45,34,100.06H11.32L0,80.45,11.32,60.84H34ZM22.65,69.53A10.92,10.92,0,1,0,33.57,80.45,10.92,10.92,0,0,0,22.65,69.53Z"/><path class="cls-1" d="M46.76,15.77l-9.1,15.76H19.45l-9.1-15.76L19.45,0H37.66ZM28.55,7a8.78,8.78,0,1,0,8.78,8.78A8.78,8.78,0,0,0,28.55,7Z"/><path class="cls-1" d="M93.84,53.84a29.13,29.13,0,0,1,12-7.26L89,17.47H51l-19,33,19,33H86.57A29.37,29.37,0,0,1,93.84,53.84ZM70,68.77A18.35,18.35,0,1,1,88.35,50.42,18.36,18.36,0,0,1,70,68.77Z"/><path class="cls-1" d="M131.65,58.88a24.08,24.08,0,0,0-32-1.85l22.66,22.66-.09-14.8,5.33,5.33,0,18.68-18.68,0-5.33-5.33,14.82.07L95.75,61a24.08,24.08,0,1,0,35.9-2.07Z"/></svg>