<?xml version="1.0" encoding="utf-8"?>
<svg width="42px" height="30px" viewBox="0 0 42 30" version="1.1" xmlns:xlink="http://www.w3.org/1999/xlink" xmlns="http://www.w3.org/2000/svg">
  <desc>Created with Lunacy</desc>
  <g id="np_connectivity_2428628_16A500">
    <path d="M40.3767 0L1.49543 0C0.669189 0 0 0.684364 0 1.52935C0 2.37433 0.669189 3.05869 1.49543 3.05869L37.6998 3.05869L33.1238 10.7054C32.6976 11.4242 32.9181 12.359 33.6172 12.8006C33.8546 12.9383 34.1219 13.0071 34.3949 12.9994C34.9145 12.9975 35.3949 12.7184 35.666 12.2653L41.6477 2.32483C41.915 1.85073 41.915 1.2696 41.6477 0.795481C41.3916 0.317561 40.9093 0.0154892 40.3766 0.000220226L40.3767 0Z" transform="translate(0 17)" id="Path" fill="#430099" stroke="none" />
    <path d="M1.50036 14L40.3538 14C41.1795 14 41.8482 13.3042 41.8482 12.4451C41.8482 11.586 41.1795 10.8902 40.3538 10.8902L4.07067 10.8902L8.77793 2.33786C9.19075 1.5915 8.94231 0.637157 8.22504 0.207651C7.50777 -0.221855 6.59057 0.0366099 6.17779 0.782946L0.200337 11.6674C-0.0667789 12.1494 -0.0667789 12.7402 0.200337 13.2223C0.467452 13.7063 0.964351 14.0017 1.50046 13.9998L1.50036 14Z" id="Path" fill="#430099" stroke="none" />
  </g>
</svg>