<svg xmlns="http://www.w3.org/2000/svg" viewBox="0 0 140 100"><defs><style>.cls-1{fill:#430099;}.cls-2{font-size:11px;font-family:DINOT-Bold, DIN OT;font-weight:700;}.cls-3{letter-spacing:-0.08em;}.cls-4{letter-spacing:0em;}.cls-5{letter-spacing:-0.01em;}</style></defs><g id="Layer_1" data-name="Layer 1"><path class="cls-1" d="M126.78,73.74A13.14,13.14,0,0,0,115,81.19H74.22v-8.4l5.89-5.89-8-8-9.22,9.22V81.19H25a13.13,13.13,0,1,0,0,11.37H115a13.12,13.12,0,1,0,11.82-18.82Z"/><path class="cls-1" d="M81.46,34.45,96.58,12.72l7.54,27.83,6.43-15.5,12.27,9.4h14.25a34.92,34.92,0,0,0-69.76,0Z"/><path class="cls-1" d="M120.45,41.43l-6.93-5.31-10.79,26L93.75,29,85.11,41.43H67.67a34.92,34.92,0,0,0,69,0Z"/></g></svg>