<svg id="Layer_1" data-name="Layer 1" xmlns="http://www.w3.org/2000/svg" viewBox="0 0 180 180"><defs><style>.cls-1,.cls-2{fill:#430099;}.cls-1{fill-rule:evenodd;}</style></defs><path class="cls-1" d="M130.44,45.14q-2.41,4.8,1,10.06l.31.45,5.72,7.2.4.37q4.36,4.55,9.56,3.26L162.07,63c.78,1.83,1.52,3.71,2.19,5.64a80.28,80.28,0,0,1,4.67,23.81l-15,3.29q-5.26,1.08-7.23,7c-.06.17-.11.35-.16.53l-2,9c0,.18,0,.36,0,.53q-.84,6.23,3.41,9.48l11.82,9.22a76.58,76.58,0,0,1-18.73,23.65l-11.86-9.67q-4.16-3.41-10-1.21c-.17.05-.34.12-.5.18l-8.27,4c-.15.09-.3.17-.45.27q-5.37,3.24-5.27,8.6l.19,14.91-.4.09a73.9,73.9,0,0,1-29.11,0l-.64-.14L74.72,157q.07-5.37-5.3-8.59l-.45-.26-8.26-3.95-.51-.18q-5.87-2.17-10,1.24L38.7,154.73a74.16,74.16,0,0,1-18.65-23.62l11.79-9.22q4.22-3.26,3.36-9.46c0-.17,0-.35-.05-.53L33.08,103c0-.17-.1-.34-.16-.5q-2-5.94-7.2-7L11.07,92.33a77,77,0,0,1,6.86-29.27l14.65,3.47q5.19,1.27,9.51-3.25c.12-.12.23-.25.34-.37l5.65-7.15.31-.45q3.42-5.23,1-10L42.59,31.63A79.93,79.93,0,0,1,63.86,20.48c2.06-.73,4.12-1.36,6.17-1.91l6.22,13.3q2.23,4.89,8.51,5.48l.55,0h9.22l.56,0q6.25-.59,8.5-5.48l6.3-13.43A87.35,87.35,0,0,1,137.2,31.55Zm3,49.39a41.94,41.94,0,0,0-12.72-30.72A41.74,41.74,0,0,0,90.05,51.07,41.76,41.76,0,0,0,59.38,63.81,41.93,41.93,0,0,0,46.67,94.53a41.89,41.89,0,0,0,12.71,30.7A41.8,41.8,0,0,0,90.05,138a41.78,41.78,0,0,0,30.67-12.74A41.9,41.9,0,0,0,133.44,94.53Z"/><polygon class="cls-2" points="90.31 135.53 78.9 93.4 71.21 104.46 46.07 104.46 46.07 90.16 63.73 90.16 84.68 60.06 93.16 91.36 99.07 77.11 116.11 90.16 133.93 90.16 133.93 104.46 111.26 104.46 105.15 99.78 90.31 135.53"/></svg>