<svg id="Layer_1" data-name="Layer 1" xmlns="http://www.w3.org/2000/svg" viewBox="0 0 180 180"><defs><style>.cls-1{fill:#430099;}</style></defs><path class="cls-1" d="M164.23,123.83,161.51,121h-5l-2.82,2.68V143l-33-6.18v-3.55h10.84l5.78-5.78V88l-3.47-3.47h-35V78.57a2.47,2.47,0,0,0,2-2.43V50.08a2.48,2.48,0,0,0-2-2.43V36.18a8,8,0,0,0-8-8v6a2,2,0,0,1,2,2V47.63a2.47,2.47,0,0,0-2.23,2.45V76.14a2.47,2.47,0,0,0,2.23,2.45v5.92H68.42L62.64,54V52.44a4.26,4.26,0,0,0-.27-8.52H9.19a4.27,4.27,0,1,0,0,8.53H10L2.77,80.58V121l10.86,12.26H24.78v6.38H17.69a16.79,16.79,0,0,0,0,33.58h112a16.79,16.79,0,0,0,14.58-25.11l9.48,1.78V167.1l4.14,4.14H179.1V168l-7.72-3ZM32.9,85.63V59H55.66L61.5,85.63ZM18.81,166a9.52,9.52,0,1,1,9.52-9.51A9.51,9.51,0,0,1,18.81,166ZM56,166a9.52,9.52,0,1,1,9.52-9.51A9.51,9.51,0,0,1,56,166Zm37.22,0a9.52,9.52,0,1,1,9.52-9.51A9.51,9.51,0,0,1,93.25,166Zm37.23,0a9.52,9.52,0,1,1,9.51-9.51A9.51,9.51,0,0,1,130.48,166Z"/></svg>