<?xml version="1.0" encoding="utf-8"?>
<svg width="26px" height="43px" viewBox="0 0 26 43" version="1.1" xmlns:xlink="http://www.w3.org/1999/xlink" xmlns="http://www.w3.org/2000/svg">
  <desc>Created with Lunacy</desc>
  <path d="M25.1775 17.9796C25.0757 17.8844 24.974 17.7892 24.8204 17.7892L15.8835 17.7874L14.8621 17.7874L21.1935 1.26047L21.4489 0.592482C21.5007 0.448805 21.5007 0.305127 21.397 0.209963L21.3452 0.16145C21.1916 -0.0288786 20.8345 -0.0773921 20.631 0.16145L0.102235 24.5233C-0.0513667 24.667 0.000497912 24.8573 0.0503708 25.001C0.152108 25.0961 0.253846 25.1913 0.407448 25.1913L10.4178 25.1913L10.0607 26.0515L3.83093 42.4365C3.77906 42.5802 3.77906 42.7239 3.88279 42.8191C4.03639 43.0094 4.39347 43.1064 4.64881 42.8191L4.80241 42.6287L25.0263 18.6495L25.1799 18.4592C25.3315 18.3603 25.3315 18.1214 25.1779 17.9796L25.1775 17.9796Z" id="Path" fill="#430099" stroke="none" />
</svg>