<svg xmlns="http://www.w3.org/2000/svg" viewBox="0 0 140 100"><defs><style>.cls-1{fill:#430099;}</style></defs><g id="Layer_1" data-name="Layer 1"><path class="cls-1" d="M79.87,84.9v2.5a1.25,1.25,0,0,1-.6,1H60.73a1.26,1.26,0,0,1-.6-1V84.9H0v5.23A9.87,9.87,0,0,0,8.34,100l122.9,0,.2,0c3-.46,8.56-3.11,8.56-9.84V84.9Z"/><path class="cls-1" d="M25.23,79.88h0V14.47a.55.55,0,0,1,.13-.33l.09-.11a.58.58,0,0,1,.33-.12h88.35a.58.58,0,0,1,.33.12l.09.11a.55.55,0,0,1,.13.33v65.4h14V12.47a12.45,12.45,0,0,0-.22-2.3.06.06,0,0,0,0,0,9.09,9.09,0,0,0-.25-1l0-.12c-.1-.34-.21-.66-.34-1l0-.12c-.14-.33-.28-.65-.44-1l0-.1c-.17-.33-.35-.64-.55-1l0,0a12.35,12.35,0,0,0-1.79-2.22L123.5,2.08l-.18.18A12.51,12.51,0,0,0,116.14,0H23.77a12.51,12.51,0,0,0-7.18,2.25l-.18-.18L15,3.59a12.35,12.35,0,0,0-1.79,2.22l0,.05c-.2.31-.38.62-.55.95l0,.1c-.16.31-.3.63-.44,1,0,0,0,.08,0,.13a10.28,10.28,0,0,0-.34,1l0,.12a9.09,9.09,0,0,0-.25,1,.07.07,0,0,0,0,0,12.35,12.35,0,0,0-.22,2.29v67.4h14ZM71.05,7A1.1,1.1,0,1,1,70,5.87,1.09,1.09,0,0,1,71.05,7Z"/></g><g id="labels"><rect class="cls-1" x="51.43" y="21.49" width="12.67" height="1.98"/><rect class="cls-1" x="51.43" y="26.6" width="15.46" height="1.98"/><path class="cls-1" d="M44.32,31V32h4.21l0-4.26H49.6l0-6.3H42.27v-1H41.21v1H30.71l0,6.3h1l0,4.26H35.9V30.9Zm-3.11-7.38v2.11h1.06V23.57h1v3.17H37V23.57Z"/><rect class="cls-1" x="51.43" y="40.92" width="13.67" height="1.98"/><rect class="cls-1" x="51.43" y="46.03" width="9.46" height="1.98"/><path class="cls-1" d="M44.32,50.39v1.07h4.21l0-4.26H49.6l0-6.3H42.27v-1H41.21v1H30.71l0,6.3h1l0,4.26H35.9V50.33ZM41.21,43v2.11h1.06V43h1v3.17H37V43Z"/><rect class="cls-1" x="51.43" y="60.35" width="12.67" height="1.98"/><rect class="cls-1" x="51.43" y="65.47" width="8.46" height="1.98"/><path class="cls-1" d="M44.32,69.82v1.07h4.21l0-4.25H49.6l0-6.31H42.27v-1H41.21v1H30.71l0,6.31h1l0,4.25H35.9V69.77Zm-3.11-7.38v2.1h1.06V62.44h1V65.6H37V62.44Z"/><rect class="cls-1" x="94.58" y="21.49" width="11.67" height="1.98"/><rect class="cls-1" x="94.58" y="26.6" width="8.46" height="1.98"/><path class="cls-1" d="M87.46,31V32h4.2l0-4.26h1l0-6.3H85.41v-1h-1v1H73.85l0,6.3h1l0,4.26H79V30.9Zm-3.1-7.38v2.11h1V23.57h1v3.17H80.14V23.57Z"/><rect class="cls-1" x="94.58" y="40.92" width="12.67" height="1.98"/><rect class="cls-1" x="94.58" y="46.03" width="9.46" height="1.98"/><path class="cls-1" d="M87.46,50.39v1.07h4.2l0-4.26h1l0-6.3H85.41v-1h-1v1H73.85l0,6.3h1l0,4.26H79V50.33ZM84.36,43v2.11h1V43h1v3.17H80.14V43Z"/><rect class="cls-1" x="94.58" y="60.35" width="12.67" height="1.98"/><rect class="cls-1" x="94.58" y="65.47" width="8.46" height="1.98"/><path class="cls-1" d="M87.46,69.82v1.07h4.2l0-4.25h1l0-6.31H85.41v-1h-1v1H73.85l0,6.31h1l0,4.25H79V69.77Zm-3.1-7.38v2.1h1V62.44h1V65.6H80.14V62.44Z"/></g></svg>