<svg id="Layer_1" data-name="Layer 1" xmlns="http://www.w3.org/2000/svg" viewBox="0 0 140 100"><defs><style>.cls-1,.cls-2{fill:#430099;}.cls-2{fill-rule:evenodd;}</style></defs><path class="cls-1" d="M23.09,67h18V49h-18Zm4.16-10.37L30.57,60l6-7.65,2.29,1.8L30.82,64.31l-5.61-5.6Z"/><rect class="cls-1" x="46.16" y="55.63" width="37.73" height="4.77"/><path class="cls-1" d="M98.91,43.59,84.71,19H80.45l-14.2,24.6,3.41,3.68H95.5Zm-14.63-1h-3.4V39.53h3.4Zm0-5.44h-3.4V27h3.4Z"/><path class="cls-1" d="M41.08,24.57h-18v18h18ZM37.56,36.9,35.43,39,32.09,35.7,28.75,39,26.62,36.9,30,33.57l-3.34-3.34,2.13-2.14,3.34,3.34,3.34-3.34,2.13,2.14-3.34,3.34Z"/><polygon class="cls-1" points="46.16 35.95 66.15 35.95 68.9 31.18 46.16 31.18 46.16 35.95"/><path class="cls-1" d="M137,3A9.54,9.54,0,0,0,130.28.09L9.68,0A9.52,9.52,0,0,0,2.94,2.92,9.56,9.56,0,0,0,0,9.68v2.25c0,22.6,0,42.79,0,65.39h0v1.86a9.58,9.58,0,0,0,2.91,6.76,9.51,9.51,0,0,0,6.73,2.91l95.8,0q-4.87-2.26-7.21-10.95c0-.2-.11-.38-.17-.58l-86.55,0,.08-65.84,116.89.08,0,28.66a8.73,8.73,0,0,1,2.28,1.64A8.85,8.85,0,0,1,132,43.64a8.67,8.67,0,0,1,2.76-.44,8.31,8.31,0,0,1,5.07,1.69c0-17.84.06-23.32.09-35.1A9.61,9.61,0,0,0,137,3Z"/><path class="cls-2" d="M109.89,100V86.77l-.67-.23c-3-1-5.2-4.26-6.63-9.57-1.57-5.85-4.06-10.34-7.4-13.36l-1.39-1.29a4.41,4.41,0,0,1-1.5-2.93,3.49,3.49,0,0,1,.91-2.79,3.42,3.42,0,0,1,2.69-1.16,4.36,4.36,0,0,1,3,1.23l5.86,5.39,0-30.25a4,4,0,0,1,6.89-2.87,3.93,3.93,0,0,1,1.2,2.88l0,13.57,2,.12a3.15,3.15,0,0,1,1-1.93,3.36,3.36,0,0,1,5.73,2.36v3.71h1.88l.13-.87a3.31,3.31,0,0,1,1-1.93,3.24,3.24,0,0,1,2.37-1,3.36,3.36,0,0,1,3.36,3.36v3.65h1.88l.13-.86a3.1,3.1,0,0,1,1-1.88,3.2,3.2,0,0,1,2.38-1,3.26,3.26,0,0,1,2.38,1,3.18,3.18,0,0,1,1,2.36l0,20.95c.14,6.76-1.49,11.15-4.83,13.08l-.5.29V100Z"/></svg>