<svg id="Layer_1" data-name="Layer 1" xmlns="http://www.w3.org/2000/svg" viewBox="0 0 140 100"><defs><style>.cls-1{fill:#430099;}</style></defs><path class="cls-1" d="M83,50.51c-3.84-7.78-4.31-15.36-4.18-25.63H65.63V17.37H58.12v7.51H0V70H7.51V100H37.56V92.49h43.1V100h30.05V75.48a2.64,2.64,0,0,1-.55-.15A51.71,51.71,0,0,1,83,50.51Zm-53,11.93H15V54.93h15Zm0-15H15V39.9h15Zm43.1,15H45.07V39.9h13v15h7.51v-15h7.52Z"/><path class="cls-1" d="M137.82,18.88c-.07-3.18-.16-6.71-.18-10.57L111.21,0,84.78,8.32c0,3.85-.1,7.38-.17,10.56C84.32,31.61,84.13,40,88.08,48a45.93,45.93,0,0,0,23.13,21.64A45.89,45.89,0,0,0,134.34,48C138.3,40,138.11,31.6,137.82,18.88ZM109.58,47.19,95,32.59l5.32-5.38,8.63,8.62,15.7-19.91,6,4.67Z"/></svg>