<svg id="Layer_1" data-name="Layer 1" xmlns="http://www.w3.org/2000/svg" viewBox="0 0 140 100"><defs><style>.cls-1{fill:#430099;}</style></defs><path class="cls-1" d="M108.23,0H31.77V76.45H46.63V100h7.89V76.45H66.06V100H74V76.45H85.48V100h7.9V76.45h14.85ZM70,53.7A15.48,15.48,0,1,1,85.48,38.22,15.48,15.48,0,0,1,70,53.7"/><path class="cls-1" d="M112.76,67.48h3.55V56h5.18V67.48H125V56h5.19V67.48h3.55V56H140V22.52H112.76Zm10.51-21.26a7,7,0,1,1,7-7,7,7,0,0,1-7,7"/><path class="cls-1" d="M27.24,22.52H0V56H6.22V67.48H9.77V56H15V67.48h3.55V56h5.18V67.48h3.55ZM16.73,46.22a7,7,0,1,1,7-7,7,7,0,0,1-7,7"/></svg>