<?xml version="1.0" encoding="utf-8"?>
<svg width="55px" height="51px" viewBox="0 0 55 51" version="1.1" xmlns:xlink="http://www.w3.org/1999/xlink" xmlns="http://www.w3.org/2000/svg">
  <desc>Created with Lunacy</desc>
  <g id="np_smart_2347446_16A500">
    <path d="M14.0571 7C14.0571 10.8664 10.9106 14 7.02855 14C3.14648 14 0 10.8663 0 7C0 3.1337 3.14648 0 7.02855 0C10.9106 0 14.0571 3.1337 14.0571 7" transform="translate(20.08159 15)" id="Path" fill="#430099" stroke="none" />
    <path d="M8.56815 3.66294L6.52644 0L4.48473 3.66294L0 4.24188L3.24554 7.01413L2.46666 11L6.52651 9.11844L10.5864 11L9.80748 7.01413L13.053 4.24188L8.56815 3.66294Z" transform="translate(21.08566 0)" id="Path" fill="#430099" stroke="none" />
    <path d="M8.56815 3.66294L6.52644 0L4.48473 3.66294L0 4.24188L3.24554 7.01413L2.46666 11L6.52651 9.11844L10.5864 11L9.80748 7.01413L13.053 4.24188L8.56815 3.66294Z" id="Path" fill="#430099" stroke="none" />
    <path d="M13.9787 5.17059e-15L6.11486 5.17059e-15C2.74154 5.17059e-15 0 2.76299 0 6.16271L0 19L20.0816 19L20.0816 6.16271C20.0928 2.76299 17.3513 0 13.978 0L13.9787 5.17059e-15Z" transform="translate(17.06935 32)" id="Path" fill="#430099" stroke="none" />
    <path d="M8.56815 3.66294L6.52644 0L4.48473 3.66294L0 4.24188L3.24554 7.01413L2.46666 11L6.52651 9.11844L10.5864 11L9.80748 7.01413L13.053 4.24188L8.56815 3.66294Z" transform="translate(41.16724 0)" id="Path" fill="#430099" stroke="none" />
  </g>
</svg>