<svg id="Layer_1" data-name="Layer 1" xmlns="http://www.w3.org/2000/svg" viewBox="0 0 140 100"><defs><style>.cls-1{fill:#430099;}</style></defs><polygon class="cls-1" points="0 79.05 43 100 43 49.53 0 28.59 0 79.05"/><path class="cls-1" d="M80.42,33.88,48.29,49.53V100l43-21V51.91A32.47,32.47,0,0,1,80.42,33.88Z"/><path class="cls-1" d="M79.68,28a32.33,32.33,0,0,1,1.54-9.89L45.6,1,.4,22.76,45.6,44.49,79.69,28.13S79.68,28.05,79.68,28Z"/><path class="cls-1" d="M112.75,0A27.25,27.25,0,0,0,90.3,42.71L111.18,21.9H96.93V13.66h28.21V41.87H116.9V27.69l-21,21A27.25,27.25,0,1,0,112.75,0Z"/></svg>