<svg id="Layer_1" data-name="Layer 1" xmlns="http://www.w3.org/2000/svg" viewBox="0 0 140 100"><defs><style>.cls-1{fill:#430099;}</style></defs><path class="cls-1" d="M119.87,75a5.77,5.77,0,1,1,5.77,5.77A5.77,5.77,0,0,1,119.87,75m-17.59-6.61a5.78,5.78,0,1,1,5.78,5.78,5.77,5.77,0,0,1-5.78-5.78M85,57.75a5.77,5.77,0,1,1,5.77,5.77A5.77,5.77,0,0,1,85,57.75m-17.32-8a5.77,5.77,0,1,1,5.77,5.77,5.77,5.77,0,0,1-5.77-5.77m-17.33,0a5.78,5.78,0,1,1,5.78,5.77,5.78,5.78,0,0,1-5.78-5.77M90.73,35.82A5.78,5.78,0,1,1,85,41.6a5.78,5.78,0,0,1,5.77-5.78M102.28,31a5.78,5.78,0,1,1,5.78,5.78A5.78,5.78,0,0,1,102.28,31m23.36-12.38a5.78,5.78,0,1,1-5.77,5.77,5.77,5.77,0,0,1,5.77-5.77M113.83,49.71a5.78,5.78,0,1,1-5.77-5.78,5.77,5.77,0,0,1,5.77,5.78m17.32,0a5.77,5.77,0,1,1-5.77-5.78,5.77,5.77,0,0,1,5.77,5.78M140,0,82.41,31.54H42.76V68.45H82.4L140,100Z"/><path class="cls-1" d="M13.23,49.71a5.78,5.78,0,1,0-5.78,5.77,5.78,5.78,0,0,0,5.78-5.77"/><path class="cls-1" d="M33.77,49.71A5.78,5.78,0,1,0,28,55.48a5.77,5.77,0,0,0,5.77-5.77"/></svg>