<svg id="Layer_1" data-name="Layer 1" xmlns="http://www.w3.org/2000/svg" viewBox="0 0 140 100"><defs><style>.cls-1{fill:#430099;}</style></defs><path class="cls-1" d="M107.6,0H97.88L65.48,56.12l7.77,8.42h59L140,56.12Zm-1,54H98.86V46.87h7.76Zm0-12.42H98.86V18.33h7.76Z"/><polygon class="cls-1" points="0 49.19 0 100 97.26 100 97.26 77.42 42.78 77.42 42.78 49.19 0 49.19"/><rect class="cls-1" y="18.39" width="42.78" height="11.29"/><polygon class="cls-1" points="46.57 9.66 63.51 9.66 63.51 29.68 57.86 38.87 57.86 44.51 52.22 50.16 52.22 38.87 46.57 29.68 46.57 9.66"/><polygon class="cls-1" points="52.22 61.45 57.86 55.8 57.86 50.16 52.22 55.8 52.22 61.45"/><polygon class="cls-1" points="52.22 72.74 57.86 72.74 57.86 61.45 52.22 67.09 52.22 72.74"/><polygon class="cls-1" points="67.3 18.39 67.3 29.68 75.92 29.68 82.22 18.39 67.3 18.39"/></svg>