<svg id="Layer_1" data-name="Layer 1" xmlns="http://www.w3.org/2000/svg" viewBox="0 0 140 100"><defs><style>.cls-1{fill:#430099;}</style></defs><polygon class="cls-1" points="41.76 35.08 28.41 35.08 28.41 29.31 18.34 29.31 18.34 42.12 41.76 42.12 41.76 35.08"/><rect class="cls-1" x="18.34" y="19.71" width="10.08" height="3.52"/><polygon class="cls-1" points="31.35 33.63 33.11 33.63 33.11 26.09 34.87 23.23 34.87 16.99 29.59 16.99 29.59 23.23 31.35 26.09 31.35 33.63"/><rect class="cls-1" x="36.05" y="19.71" width="5.71" height="3.52"/><polygon class="cls-1" points="123.06 63.65 99.19 55.85 86.6 62.26 77.73 58.93 69.33 66.25 53.93 58.93 53.93 72.39 123 72.39 123.06 63.65"/><polygon class="cls-1" points="123.06 20.96 113.59 15.17 83.73 24.56 60.46 16.25 53.93 20.99 53.93 29.71 123 29.71 123.06 20.96"/><polygon class="cls-1" points="123.06 42.3 99.19 34.51 86.6 40.92 77.73 37.59 53.93 45.32 53.93 51.05 123 51.05 123.06 42.3"/><path class="cls-1" d="M140-.24H0v89H50.74l-4.23,11.5h47l-4.23-11.5H140ZM127.07,76.81H12.93V11.68H127.07Z"/></svg>