<svg id="Layer_1" data-name="Layer 1" xmlns="http://www.w3.org/2000/svg" viewBox="0 0 140 100"><defs><style>.cls-1{fill:#430099;fill-rule:evenodd;}</style></defs><path class="cls-1" d="M136.88,2.34a10.13,10.13,0,0,0-7.18-3.1H10.3A10.12,10.12,0,0,0,3.12,2.37,10.21,10.21,0,0,0,0,9.57C0,22.64,0,37.29,0,49.62s0,27,0,40.05a10.23,10.23,0,0,0,3.12,7.21A10.15,10.15,0,0,0,10.3,100H129.7A10.62,10.62,0,0,0,140,89.7V87.26c0-12,0-26.3,0-37.64S140,24,140,12V9.54A10.18,10.18,0,0,0,136.88,2.34Zm-9.16,9.19V87.72l-115.44,0V11.5ZM22.77,28.69H66.5v-8.2H22.77Zm0,21.8H93.94V44.58H22.77Zm84.42,8.72H86.34v5.94h20.85Zm-35.71,0H50.64v5.94H71.48ZM32.74,69.61h-10v7.16h10Zm13.93,0h-10v7.16h10Zm-3.05-10.4H22.77v5.94H43.62Zm38.84,10.4H50.64v7.16H82.46Zm35.71,0H86.34v7.16h31.83Zm-.91-33.36H22.77v5.91h94.49Zm0-15.76h-8.74v8.2h8.74Z"/></svg>