<svg id="Layer_1" data-name="Layer 1" xmlns="http://www.w3.org/2000/svg" viewBox="0 0 140 100"><defs><style>.cls-1{fill:#430099;}</style></defs><rect class="cls-1" x="0.47" width="38.19" height="38.19"/><rect class="cls-1" x="45.38" y="6.83" width="77.59" height="10.24"/><polygon class="cls-1" points="122.97 30.8 122.97 12.54 112.73 12.54 112.73 30.81 103.71 21.71 103.71 35.68 117.83 49.83 131.94 35.68 131.94 21.72 122.97 30.8"/><rect class="cls-1" x="15.37" y="78.92" width="77.92" height="10.24"/><polygon class="cls-1" points="15.37 65.18 15.37 83.45 25.61 83.45 25.61 65.17 34.63 74.27 34.63 60.31 20.52 46.16 6.4 60.31 6.4 74.26 15.37 65.18"/><circle class="cls-1" cx="119.02" cy="79.49" r="20.51"/><polygon class="cls-1" points="66.35 65.73 90.24 35.49 83.46 30.18 65.61 52.82 55.8 43.02 49.76 49.14 66.35 65.73"/></svg>